<mxfile host="app.diagrams.net" agent="Mozilla/5.0 (Windows NT 10.0; Win64; x64) AppleWebKit/537.36 (KHTML, like Gecko) Chrome/118.0.0.0 Safari/537.36" version="27.2.0">
  <diagram name="Страница — 1" id="KfljpNFBjnoDtOURIDzJ">
    <mxGraphModel dx="1070" dy="536" grid="1" gridSize="10" guides="1" tooltips="1" connect="1" arrows="1" fold="1" page="1" pageScale="1" pageWidth="827" pageHeight="1169" math="0" shadow="0">
      <root>
        <mxCell id="0" />
        <mxCell id="1" parent="0" />
        <mxCell id="zQYfq-BcnlAEbRP5Ujdf-87" value="HR" style="shape=umlActor;verticalLabelPosition=bottom;verticalAlign=top;html=1;" vertex="1" parent="1">
          <mxGeometry x="493" y="326" width="30" height="60" as="geometry" />
        </mxCell>
        <mxCell id="zQYfq-BcnlAEbRP5Ujdf-96" value="" style="endArrow=none;html=1;rounded=0;exitX=0.642;exitY=0.026;exitDx=0;exitDy=0;exitPerimeter=0;" edge="1" parent="1" source="zQYfq-BcnlAEbRP5Ujdf-97">
          <mxGeometry width="50" height="50" relative="1" as="geometry">
            <mxPoint x="507" y="470" as="sourcePoint" />
            <mxPoint x="470" y="390" as="targetPoint" />
          </mxGeometry>
        </mxCell>
        <mxCell id="zQYfq-BcnlAEbRP5Ujdf-97" value="Добавить тест*" style="ellipse;whiteSpace=wrap;html=1;" vertex="1" parent="1">
          <mxGeometry x="240" y="430" width="150" height="40" as="geometry" />
        </mxCell>
        <mxCell id="zQYfq-BcnlAEbRP5Ujdf-104" value="" style="endArrow=none;html=1;rounded=0;exitX=0;exitY=0.5;exitDx=0;exitDy=0;" edge="1" parent="1" source="zQYfq-BcnlAEbRP5Ujdf-105">
          <mxGeometry width="50" height="50" relative="1" as="geometry">
            <mxPoint x="696.8299999999999" y="516" as="sourcePoint" />
            <mxPoint x="470" y="370" as="targetPoint" />
          </mxGeometry>
        </mxCell>
        <mxCell id="zQYfq-BcnlAEbRP5Ujdf-105" value="Посмотреть подробный анализ результата" style="ellipse;whiteSpace=wrap;html=1;" vertex="1" parent="1">
          <mxGeometry x="190" y="330" width="170" height="60" as="geometry" />
        </mxCell>
        <mxCell id="zQYfq-BcnlAEbRP5Ujdf-108" value="" style="endArrow=none;html=1;rounded=0;exitX=0;exitY=0;exitDx=0;exitDy=0;" edge="1" parent="1" source="zQYfq-BcnlAEbRP5Ujdf-109">
          <mxGeometry width="50" height="50" relative="1" as="geometry">
            <mxPoint x="252" y="488" as="sourcePoint" />
            <mxPoint x="650" y="420" as="targetPoint" />
          </mxGeometry>
        </mxCell>
        <mxCell id="zQYfq-BcnlAEbRP5Ujdf-109" value="Просмотреть результат теста" style="ellipse;whiteSpace=wrap;html=1;" vertex="1" parent="1">
          <mxGeometry x="709" y="470" width="200" height="48" as="geometry" />
        </mxCell>
        <mxCell id="zQYfq-BcnlAEbRP5Ujdf-130" value="Кандидат" style="shape=umlActor;verticalLabelPosition=bottom;verticalAlign=top;html=1;" vertex="1" parent="1">
          <mxGeometry x="621" y="329" width="30" height="60" as="geometry" />
        </mxCell>
        <mxCell id="zQYfq-BcnlAEbRP5Ujdf-132" value="Пройти тест" style="ellipse;whiteSpace=wrap;html=1;" vertex="1" parent="1">
          <mxGeometry x="779" y="360" width="150" height="50" as="geometry" />
        </mxCell>
        <mxCell id="zQYfq-BcnlAEbRP5Ujdf-134" value="Изменить тему" style="ellipse;whiteSpace=wrap;html=1;" vertex="1" parent="1">
          <mxGeometry x="719" y="210" width="150" height="50" as="geometry" />
        </mxCell>
        <mxCell id="zQYfq-BcnlAEbRP5Ujdf-137" value="" style="endArrow=none;html=1;rounded=0;exitX=0.19;exitY=0.918;exitDx=0;exitDy=0;exitPerimeter=0;" edge="1" parent="1" source="zQYfq-BcnlAEbRP5Ujdf-134">
          <mxGeometry width="50" height="50" relative="1" as="geometry">
            <mxPoint x="1122" y="647" as="sourcePoint" />
            <mxPoint x="650" y="320" as="targetPoint" />
          </mxGeometry>
        </mxCell>
        <mxCell id="zQYfq-BcnlAEbRP5Ujdf-138" value="" style="endArrow=none;html=1;rounded=0;exitX=0.907;exitY=0.808;exitDx=0;exitDy=0;exitPerimeter=0;" edge="1" parent="1" source="zQYfq-BcnlAEbRP5Ujdf-139">
          <mxGeometry width="50" height="50" relative="1" as="geometry">
            <mxPoint x="567.8299999999999" y="427" as="sourcePoint" />
            <mxPoint x="470" y="349" as="targetPoint" />
          </mxGeometry>
        </mxCell>
        <mxCell id="zQYfq-BcnlAEbRP5Ujdf-139" value="Просмотреть список всех результатов" style="ellipse;whiteSpace=wrap;html=1;" vertex="1" parent="1">
          <mxGeometry x="220" y="240" width="210" height="72" as="geometry" />
        </mxCell>
        <mxCell id="zQYfq-BcnlAEbRP5Ujdf-157" value="" style="endArrow=none;html=1;rounded=0;exitX=0;exitY=0.5;exitDx=0;exitDy=0;" edge="1" parent="1" source="zQYfq-BcnlAEbRP5Ujdf-132">
          <mxGeometry width="50" height="50" relative="1" as="geometry">
            <mxPoint x="879" y="310" as="sourcePoint" />
            <mxPoint x="659" y="380" as="targetPoint" />
          </mxGeometry>
        </mxCell>
        <mxCell id="zQYfq-BcnlAEbRP5Ujdf-158" value="Выбрать тест*" style="ellipse;whiteSpace=wrap;html=1;" vertex="1" parent="1">
          <mxGeometry x="779" y="280" width="150" height="50" as="geometry" />
        </mxCell>
        <mxCell id="zQYfq-BcnlAEbRP5Ujdf-159" value="" style="endArrow=none;html=1;rounded=0;exitX=0;exitY=1;exitDx=0;exitDy=0;" edge="1" parent="1" source="zQYfq-BcnlAEbRP5Ujdf-158">
          <mxGeometry width="50" height="50" relative="1" as="geometry">
            <mxPoint x="1242" y="653" as="sourcePoint" />
            <mxPoint x="659" y="350" as="targetPoint" />
          </mxGeometry>
        </mxCell>
      </root>
    </mxGraphModel>
  </diagram>
</mxfile>
